<svg xmlns="http://www.w3.org/2000/svg" width="237.002" height="192.929" viewBox="0 0 237.002 192.929">
  <g id="Car-Illustration" transform="translate(-99.048 -150.113)">
    <g id="Group_145" data-name="Group 145" transform="translate(99.048 150.113)">
      <g id="Group_53" data-name="Group 53" transform="translate(64.007 9.579)">
        <g id="Group_10" data-name="Group 10" transform="translate(64.516)">
          <g id="Group_4" data-name="Group 4" transform="translate(0 5.564)">
            <g id="Group_1" data-name="Group 1" transform="translate(0 128.273)">
              <rect id="Rectangle_2" data-name="Rectangle 2" width="19.578" height="2.637" transform="translate(0.599 0.599)" fill="#4786bf"/>
              <path id="Path_1" data-name="Path 1" d="M1520.477,1873.836H1500.9a.6.6,0,0,1-.6-.6V1870.6a.6.6,0,0,1,.6-.6h19.578a.6.6,0,0,1,.6.6v2.637A.6.6,0,0,1,1520.477,1873.836Zm-18.978-1.2h18.379V1871.2H1501.5Z" transform="translate(-1500.3 -1870)" fill="#303e5c"/>
            </g>
            <g id="Group_2" data-name="Group 2">
              <rect id="Rectangle_3" data-name="Rectangle 3" width="19.578" height="2.637" transform="translate(0.599 0.609)" fill="#4786bf"/>
              <path id="Path_2" data-name="Path 2" d="M1520.477,589.635H1500.9a.6.6,0,0,1-.6-.6V586.4a.6.6,0,0,1,.6-.6h19.578a.6.6,0,0,1,.6.6v2.637A.6.6,0,0,1,1520.477,589.635Zm-18.978-1.2h18.379V587H1501.5Z" transform="translate(-1500.3 -585.8)" fill="#303e5c"/>
            </g>
            <g id="Group_3" data-name="Group 3" transform="translate(3.696 2.637)">
              <rect id="Rectangle_4" data-name="Rectangle 4" width="12.376" height="125.636" transform="translate(0.599 0.599)" fill="#4786bf"/>
              <path id="Path_3" data-name="Path 3" d="M1550.275,739.034H1537.9a.6.6,0,0,1-.6-.6V612.8a.6.6,0,0,1,.6-.6h12.376a.6.6,0,0,1,.6.6V738.435A.594.594,0,0,1,1550.275,739.034Zm-11.777-1.2h11.177V613.4H1538.5Z" transform="translate(-1537.3 -612.2)" fill="#303e5c"/>
            </g>
          </g>
          <g id="Group_9" data-name="Group 9" transform="translate(21.865)">
            <g id="Group_5" data-name="Group 5" transform="translate(0 133.836)">
              <rect id="Rectangle_5" data-name="Rectangle 5" width="19.578" height="2.637" transform="translate(0.589 0.599)" fill="#4786bf"/>
              <path id="Path_4" data-name="Path 4" d="M1739.377,1873.836H1719.8a.6.6,0,0,1-.6-.6V1870.6a.6.6,0,0,1,.6-.6h19.578a.6.6,0,0,1,.6.6v2.637A.6.6,0,0,1,1739.377,1873.836Zm-18.988-1.2h18.379V1871.2h-18.379Z" transform="translate(-1719.2 -1870)" fill="#303e5c"/>
            </g>
            <g id="Group_6" data-name="Group 6">
              <rect id="Rectangle_6" data-name="Rectangle 6" width="19.578" height="2.637" transform="translate(0.589 0.609)" fill="#4786bf"/>
              <path id="Path_5" data-name="Path 5" d="M1739.377,533.936H1719.8a.6.6,0,0,1-.6-.6V530.7a.6.6,0,0,1,.6-.6h19.578a.6.6,0,0,1,.6.6v2.637A.594.594,0,0,1,1739.377,533.936Zm-18.988-1.2h18.379V531.3h-18.379Z" transform="translate(-1719.2 -530.1)" fill="#303e5c"/>
            </g>
            <g id="Group_7" data-name="Group 7" transform="translate(3.696 2.637)">
              <rect id="Rectangle_7" data-name="Rectangle 7" width="12.376" height="131.189" transform="translate(0.599 0.599)" fill="#4786bf"/>
              <path id="Path_6" data-name="Path 6" d="M1769.175,688.9H1756.8a.6.6,0,0,1-.6-.6V557.1a.6.6,0,0,1,.6-.6h12.376a.6.6,0,0,1,.6.6V688.3A.6.6,0,0,1,1769.175,688.9Zm-11.777-1.2h11.177v-130H1757.4Z" transform="translate(-1756.2 -556.5)" fill="#303e5c"/>
            </g>
            <g id="Group_8" data-name="Group 8" transform="translate(7.072 6.882)">
              <rect id="Rectangle_8" data-name="Rectangle 8" width="5.893" height="118.754" transform="translate(0.599 0.599)" fill="#676767"/>
              <path id="Path_7" data-name="Path 7" d="M1796.492,718.952H1790.6a.6.6,0,0,1-.6-.6V599.6a.6.6,0,0,1,.6-.6h5.893a.6.6,0,0,1,.6.6V718.353A.6.6,0,0,1,1796.492,718.952Zm-5.294-1.2h4.695V600.2H1791.2Z" transform="translate(-1790 -599)" fill="#303e5c"/>
            </g>
          </g>
        </g>
        <g id="Group_43" data-name="Group 43" transform="translate(102.452 143.965)">
          <g id="Group_26" data-name="Group 26">
            <g id="Group_11" data-name="Group 11">
              <path id="Path_8" data-name="Path 8" d="M1920.4,1985.391a1.2,1.2,0,0,1-1.2,1.2h-31.9a1.2,1.2,0,0,1-1.2-1.2V1978.6a1.2,1.2,0,0,1,1.2-1.2h31.9a1.2,1.2,0,0,1,1.2,1.2Z" transform="translate(-1885.5 -1976.801)" fill="#504b45"/>
              <path id="Path_9" data-name="Path 9" d="M1913.8,1981.788h-31.9a1.8,1.8,0,0,1-1.8-1.8V1973.2a1.8,1.8,0,0,1,1.8-1.8h31.9a1.8,1.8,0,0,1,1.8,1.8v6.792A1.8,1.8,0,0,1,1913.8,1981.788Zm-31.9-9.19a.6.6,0,0,0-.6.6v6.792a.6.6,0,0,0,.6.6h31.9a.6.6,0,0,0,.6-.6V1973.2a.6.6,0,0,0-.6-.6Z" transform="translate(-1880.1 -1971.4)" fill="#303e5c"/>
            </g>
            <g id="Group_23" data-name="Group 23" transform="translate(0.51 2.694)">
              <g id="Group_12" data-name="Group 12">
                <path id="Path_10" data-name="Path 10" d="M1885.8,2003.265a.6.6,0,0,1-.459-.21.612.612,0,0,1,.07-.849l1.428-1.2-1.479-1.638a.6.6,0,1,1,.889-.809l1.9,2.1a.59.59,0,0,1,.15.44.629.629,0,0,1-.209.42l-1.9,1.6A.618.618,0,0,1,1885.8,2003.265Z" transform="translate(-1885.205 -1998.368)" fill="#303e5c"/>
              </g>
              <g id="Group_13" data-name="Group 13" transform="translate(3.156)">
                <path id="Path_11" data-name="Path 11" d="M1917.4,2003.265a.6.6,0,0,1-.459-.21.612.612,0,0,1,.07-.849l1.428-1.2-1.478-1.638a.6.6,0,1,1,.889-.809l1.9,2.1a.6.6,0,0,1,.15.44.632.632,0,0,1-.21.42l-1.9,1.6A.6.6,0,0,1,1917.4,2003.265Z" transform="translate(-1916.805 -1998.368)" fill="#303e5c"/>
              </g>
              <g id="Group_14" data-name="Group 14" transform="translate(6.313)">
                <path id="Path_12" data-name="Path 12" d="M1949,2003.265a.6.6,0,0,1-.46-.21.612.612,0,0,1,.07-.849l1.428-1.2-1.478-1.638a.6.6,0,1,1,.889-.809l1.9,2.1a.593.593,0,0,1,.15.44.632.632,0,0,1-.21.42l-1.9,1.6A.578.578,0,0,1,1949,2003.265Z" transform="translate(-1948.405 -1998.368)" fill="#303e5c"/>
              </g>
              <g id="Group_15" data-name="Group 15" transform="translate(9.479)">
                <path id="Path_13" data-name="Path 13" d="M1980.7,2003.265a.6.6,0,0,1-.459-.21.612.612,0,0,1,.07-.849l1.428-1.2-1.478-1.638a.6.6,0,1,1,.889-.809l1.9,2.1a.593.593,0,0,1,.15.44.631.631,0,0,1-.21.42l-1.9,1.6A.617.617,0,0,1,1980.7,2003.265Z" transform="translate(-1980.105 -1998.368)" fill="#303e5c"/>
              </g>
              <g id="Group_16" data-name="Group 16" transform="translate(12.635)">
                <path id="Path_14" data-name="Path 14" d="M2012.3,2003.265a.6.6,0,0,1-.459-.21.612.612,0,0,1,.07-.849l1.428-1.2-1.478-1.638a.6.6,0,1,1,.889-.809l1.9,2.1a.594.594,0,0,1,.15.44.633.633,0,0,1-.21.42l-1.9,1.6A.618.618,0,0,1,2012.3,2003.265Z" transform="translate(-2011.705 -1998.368)" fill="#303e5c"/>
              </g>
              <g id="Group_17" data-name="Group 17" transform="translate(15.792)">
                <path id="Path_15" data-name="Path 15" d="M2043.9,2003.265a.6.6,0,0,1-.459-.21.612.612,0,0,1,.07-.849l1.428-1.2-1.478-1.638a.6.6,0,1,1,.889-.809l1.9,2.1a.592.592,0,0,1,.15.44.63.63,0,0,1-.21.42l-1.9,1.6A.6.6,0,0,1,2043.9,2003.265Z" transform="translate(-2043.305 -1998.368)" fill="#303e5c"/>
              </g>
              <g id="Group_18" data-name="Group 18" transform="translate(18.948)">
                <path id="Path_16" data-name="Path 16" d="M2075.5,2003.265a.6.6,0,0,1-.46-.21.612.612,0,0,1,.07-.849l1.428-1.2-1.478-1.638a.6.6,0,1,1,.889-.809l1.9,2.1a.594.594,0,0,1,.15.44.634.634,0,0,1-.21.42l-1.9,1.6A.579.579,0,0,1,2075.5,2003.265Z" transform="translate(-2074.905 -1998.368)" fill="#303e5c"/>
              </g>
              <g id="Group_19" data-name="Group 19" transform="translate(22.115)">
                <path id="Path_17" data-name="Path 17" d="M2107.2,2003.265a.6.6,0,0,1-.459-.21.612.612,0,0,1,.07-.849l1.429-1.2-1.479-1.638a.6.6,0,0,1,.889-.809l1.9,2.1a.593.593,0,0,1,.15.44.633.633,0,0,1-.209.42l-1.9,1.6A.618.618,0,0,1,2107.2,2003.265Z" transform="translate(-2106.604 -1998.368)" fill="#303e5c"/>
              </g>
              <g id="Group_20" data-name="Group 20" transform="translate(25.271)">
                <path id="Path_18" data-name="Path 18" d="M2138.8,2003.265a.6.6,0,0,1-.459-.21.612.612,0,0,1,.07-.849l1.428-1.2-1.478-1.638a.6.6,0,0,1,.889-.809l1.9,2.1a.593.593,0,0,1,.15.44.63.63,0,0,1-.21.42l-1.9,1.6A.6.6,0,0,1,2138.8,2003.265Z" transform="translate(-2138.204 -1998.368)" fill="#303e5c"/>
              </g>
              <g id="Group_21" data-name="Group 21" transform="translate(28.427)">
                <path id="Path_19" data-name="Path 19" d="M2170.4,2003.265a.6.6,0,0,1-.459-.21.612.612,0,0,1,.07-.849l1.429-1.2-1.479-1.638a.6.6,0,0,1,.889-.809l1.9,2.1a.594.594,0,0,1,.15.44.63.63,0,0,1-.21.42l-1.9,1.6A.58.58,0,0,1,2170.4,2003.265Z" transform="translate(-2169.804 -1998.368)" fill="#303e5c"/>
              </g>
              <g id="Group_22" data-name="Group 22" transform="translate(31.594)">
                <path id="Path_20" data-name="Path 20" d="M2202.1,2003.265a.6.6,0,0,1-.46-.21.612.612,0,0,1,.07-.849l1.428-1.2-1.478-1.638a.6.6,0,1,1,.889-.809l1.9,2.1a.593.593,0,0,1,.149.44.629.629,0,0,1-.209.42l-1.9,1.6A.616.616,0,0,1,2202.1,2003.265Z" transform="translate(-2201.505 -1998.368)" fill="#303e5c"/>
              </g>
            </g>
            <g id="Group_24" data-name="Group 24" transform="translate(0.26 2.148)">
              <path id="Path_21" data-name="Path 21" d="M1917.041,1994.1H1883.3a.6.6,0,0,1,0-1.2h33.741a.6.6,0,1,1,0,1.2Z" transform="translate(-1882.7 -1992.9)" fill="#303e5c"/>
            </g>
            <g id="Group_25" data-name="Group 25" transform="translate(0.26 6.992)">
              <path id="Path_22" data-name="Path 22" d="M1917.041,2042.6H1883.3a.6.6,0,0,1,0-1.2h33.741a.6.6,0,1,1,0,1.2Z" transform="translate(-1882.7 -2041.4)" fill="#303e5c"/>
            </g>
          </g>
          <g id="Group_42" data-name="Group 42" transform="translate(0 9.189)">
            <g id="Group_27" data-name="Group 27">
              <path id="Path_23" data-name="Path 23" d="M1920.4,2077.391a1.2,1.2,0,0,1-1.2,1.2h-31.9a1.2,1.2,0,0,1-1.2-1.2V2070.6a1.2,1.2,0,0,1,1.2-1.2h31.9a1.2,1.2,0,0,1,1.2,1.2Z" transform="translate(-1885.5 -2068.801)" fill="#504b45"/>
              <path id="Path_24" data-name="Path 24" d="M1913.8,2073.788h-31.9a1.8,1.8,0,0,1-1.8-1.8V2065.2a1.8,1.8,0,0,1,1.8-1.8h31.9a1.8,1.8,0,0,1,1.8,1.8v6.792A1.8,1.8,0,0,1,1913.8,2073.788Zm-31.9-9.19a.6.6,0,0,0-.6.6v6.792a.6.6,0,0,0,.6.6h31.9a.6.6,0,0,0,.6-.6V2065.2a.6.6,0,0,0-.6-.6Z" transform="translate(-1880.1 -2063.4)" fill="#303e5c"/>
            </g>
            <g id="Group_39" data-name="Group 39" transform="translate(0.51 2.694)">
              <g id="Group_28" data-name="Group 28">
                <path id="Path_25" data-name="Path 25" d="M1885.8,2095.265a.6.6,0,0,1-.459-.21.611.611,0,0,1,.07-.849l1.428-1.2-1.479-1.638a.6.6,0,0,1,.889-.809l1.9,2.1a.59.59,0,0,1,.15.44.628.628,0,0,1-.209.419l-1.9,1.6A.616.616,0,0,1,1885.8,2095.265Z" transform="translate(-1885.205 -2090.367)" fill="#303e5c"/>
              </g>
              <g id="Group_29" data-name="Group 29" transform="translate(3.156)">
                <path id="Path_26" data-name="Path 26" d="M1917.4,2095.265a.6.6,0,0,1-.459-.21.611.611,0,0,1,.07-.849l1.428-1.2-1.478-1.638a.6.6,0,0,1,.889-.809l1.9,2.1a.6.6,0,0,1,.15.44.631.631,0,0,1-.21.419l-1.9,1.6A.6.6,0,0,1,1917.4,2095.265Z" transform="translate(-1916.805 -2090.367)" fill="#303e5c"/>
              </g>
              <g id="Group_30" data-name="Group 30" transform="translate(6.313)">
                <path id="Path_27" data-name="Path 27" d="M1949,2095.265a.6.6,0,0,1-.46-.21.611.611,0,0,1,.07-.849l1.428-1.2-1.478-1.638a.6.6,0,1,1,.889-.809l1.9,2.1a.594.594,0,0,1,.15.44.632.632,0,0,1-.21.419l-1.9,1.6A.577.577,0,0,1,1949,2095.265Z" transform="translate(-1948.405 -2090.367)" fill="#303e5c"/>
              </g>
              <g id="Group_31" data-name="Group 31" transform="translate(9.479)">
                <path id="Path_28" data-name="Path 28" d="M1980.7,2095.265a.6.6,0,0,1-.459-.21.611.611,0,0,1,.07-.849l1.428-1.2-1.478-1.638a.6.6,0,0,1,.889-.809l1.9,2.1a.593.593,0,0,1,.15.44.63.63,0,0,1-.21.419l-1.9,1.6A.616.616,0,0,1,1980.7,2095.265Z" transform="translate(-1980.105 -2090.367)" fill="#303e5c"/>
              </g>
              <g id="Group_32" data-name="Group 32" transform="translate(12.635)">
                <path id="Path_29" data-name="Path 29" d="M2012.3,2095.265a.6.6,0,0,1-.459-.21.611.611,0,0,1,.07-.849l1.428-1.2-1.478-1.638a.6.6,0,0,1,.889-.809l1.9,2.1a.594.594,0,0,1,.15.44.632.632,0,0,1-.21.419l-1.9,1.6A.616.616,0,0,1,2012.3,2095.265Z" transform="translate(-2011.705 -2090.367)" fill="#303e5c"/>
              </g>
              <g id="Group_33" data-name="Group 33" transform="translate(15.792)">
                <path id="Path_30" data-name="Path 30" d="M2043.9,2095.265a.6.6,0,0,1-.459-.21.611.611,0,0,1,.07-.849l1.428-1.2-1.478-1.638a.6.6,0,1,1,.889-.809l1.9,2.1a.592.592,0,0,1,.15.44.629.629,0,0,1-.21.419l-1.9,1.6A.6.6,0,0,1,2043.9,2095.265Z" transform="translate(-2043.305 -2090.367)" fill="#303e5c"/>
              </g>
              <g id="Group_34" data-name="Group 34" transform="translate(18.948)">
                <path id="Path_31" data-name="Path 31" d="M2075.5,2095.265a.6.6,0,0,1-.46-.21.611.611,0,0,1,.07-.849l1.428-1.2-1.478-1.638a.6.6,0,1,1,.889-.809l1.9,2.1a.6.6,0,0,1,.15.44.633.633,0,0,1-.21.419l-1.9,1.6A.578.578,0,0,1,2075.5,2095.265Z" transform="translate(-2074.905 -2090.367)" fill="#303e5c"/>
              </g>
              <g id="Group_35" data-name="Group 35" transform="translate(22.115)">
                <path id="Path_32" data-name="Path 32" d="M2107.2,2095.265a.6.6,0,0,1-.459-.21.611.611,0,0,1,.07-.849l1.429-1.2-1.479-1.638a.6.6,0,0,1,.889-.809l1.9,2.1a.594.594,0,0,1,.15.44.632.632,0,0,1-.209.419l-1.9,1.6A.616.616,0,0,1,2107.2,2095.265Z" transform="translate(-2106.604 -2090.367)" fill="#303e5c"/>
              </g>
              <g id="Group_36" data-name="Group 36" transform="translate(25.271)">
                <path id="Path_33" data-name="Path 33" d="M2138.8,2095.265a.6.6,0,0,1-.459-.21.611.611,0,0,1,.07-.849l1.428-1.2-1.478-1.638a.6.6,0,0,1,.889-.809l1.9,2.1a.593.593,0,0,1,.15.44.629.629,0,0,1-.21.419l-1.9,1.6A.6.6,0,0,1,2138.8,2095.265Z" transform="translate(-2138.204 -2090.367)" fill="#303e5c"/>
              </g>
              <g id="Group_37" data-name="Group 37" transform="translate(28.427)">
                <path id="Path_34" data-name="Path 34" d="M2170.4,2095.265a.6.6,0,0,1-.459-.21.611.611,0,0,1,.07-.849l1.429-1.2-1.479-1.638a.6.6,0,0,1,.889-.809l1.9,2.1a.6.6,0,0,1,.15.44.629.629,0,0,1-.21.419l-1.9,1.6A.578.578,0,0,1,2170.4,2095.265Z" transform="translate(-2169.804 -2090.367)" fill="#303e5c"/>
              </g>
              <g id="Group_38" data-name="Group 38" transform="translate(31.594)">
                <path id="Path_35" data-name="Path 35" d="M2202.1,2095.265a.6.6,0,0,1-.46-.21.611.611,0,0,1,.07-.849l1.428-1.2-1.478-1.638a.6.6,0,1,1,.889-.809l1.9,2.1a.593.593,0,0,1,.149.44.628.628,0,0,1-.209.419l-1.9,1.6A.614.614,0,0,1,2202.1,2095.265Z" transform="translate(-2201.505 -2090.367)" fill="#303e5c"/>
              </g>
            </g>
            <g id="Group_40" data-name="Group 40" transform="translate(0.26 2.148)">
              <path id="Path_36" data-name="Path 36" d="M1917.041,2086.1H1883.3a.6.6,0,0,1,0-1.2h33.741a.6.6,0,1,1,0,1.2Z" transform="translate(-1882.7 -2084.9)" fill="#303e5c"/>
            </g>
            <g id="Group_41" data-name="Group 41" transform="translate(0.26 6.992)">
              <path id="Path_37" data-name="Path 37" d="M1917.041,2134.6H1883.3a.6.6,0,0,1,0-1.2h33.741a.6.6,0,1,1,0,1.2Z" transform="translate(-1882.7 -2133.4)" fill="#303e5c"/>
            </g>
          </g>
        </g>
        <g id="Group_52" data-name="Group 52" transform="translate(0 148.729)">
          <g id="Group_44" data-name="Group 44" transform="translate(1.578 4.425)">
            <rect id="Rectangle_9" data-name="Rectangle 9" width="21.016" height="12.985" transform="translate(0.599 0.599)" fill="#bbbcbe"/>
            <path id="Path_38" data-name="Path 38" d="M892.414,2077.583H870.2V2063.4h22.214Zm-21.016-1.2h19.817V2064.6H871.4Z" transform="translate(-870.2 -2063.4)" fill="#303e5c"/>
          </g>
          <g id="Group_45" data-name="Group 45" transform="translate(0 2.927)">
            <path id="Path_39" data-name="Path 39" d="M884.153,2055.149a.755.755,0,0,1-.749.749H861.149a.755.755,0,0,1-.749-.749h0a.755.755,0,0,1,.749-.749H883.4a.755.755,0,0,1,.749.749Z" transform="translate(-859.801 -2053.801)" fill="#8d8c8a"/>
            <path id="Path_40" data-name="Path 40" d="M878,2051.1H855.749a1.348,1.348,0,1,1,0-2.7H878a1.348,1.348,0,1,1,0,2.7Zm-22.254-1.5a.15.15,0,1,0,0,.3H878a.15.15,0,1,0,0-.3Z" transform="translate(-854.4 -2048.4)" fill="#303e5c"/>
          </g>
          <g id="Group_46" data-name="Group 46" transform="translate(1.079 1.698)">
            <path id="Path_41" data-name="Path 41" d="M892.176,2042.1h-20.3a.7.7,0,0,0-.679.729h21.665A.713.713,0,0,0,892.176,2042.1Z" transform="translate(-870.601 -2041.501)" fill="#303e5c"/>
            <path id="Path_42" data-name="Path 42" d="M888.064,2038.028H865.2v-.6a1.311,1.311,0,0,1,1.279-1.328h20.3a1.3,1.3,0,0,1,1.278,1.328v.6Z" transform="translate(-865.2 -2036.1)" fill="#303e5c"/>
          </g>
          <g id="Group_47" data-name="Group 47" transform="translate(0.31 17.41)">
            <path id="Path_43" data-name="Path 43" d="M886.584,2199.4H864.249a.738.738,0,0,0-.749.729h23.843A.746.746,0,0,0,886.584,2199.4Z" transform="translate(-862.901 -2198.801)" fill="#303e5c"/>
            <path id="Path_44" data-name="Path 44" d="M882.541,2195.328H857.5v-.6a1.345,1.345,0,0,1,1.348-1.329h22.334a1.339,1.339,0,0,1,1.349,1.329v.6Z" transform="translate(-857.5 -2193.4)" fill="#303e5c"/>
          </g>
          <g id="Group_48" data-name="Group 48" transform="translate(5.114)">
            <path id="Path_45" data-name="Path 45" d="M924.835,2025.1H912.03c-.24,0-.429.33-.429.729h13.664C925.264,2025.43,925.075,2025.1,924.835,2025.1Z" transform="translate(-911.001 -2024.501)" fill="#303e5c"/>
            <path id="Path_46" data-name="Path 46" d="M920.463,2021.028H905.6v-.6c0-.759.439-1.328,1.029-1.328h12.805c.589,0,1.029.569,1.029,1.328Z" transform="translate(-905.6 -2019.1)" fill="#303e5c"/>
          </g>
          <rect id="Rectangle_10" data-name="Rectangle 10" width="1.788" height="1.219" transform="translate(2.747 0.34)" fill="#8d8c8a"/>
          <rect id="Rectangle_11" data-name="Rectangle 11" width="2.367" height="0.33" transform="translate(2.417 1.398)" fill="#de5253"/>
          <rect id="Rectangle_12" data-name="Rectangle 12" width="1.788" height="1.219" transform="translate(20.526 0.34)" fill="#8d8c8a"/>
          <rect id="Rectangle_13" data-name="Rectangle 13" width="2.367" height="0.33" transform="translate(20.197 1.398)" fill="#4786bf"/>
          <g id="Group_49" data-name="Group 49" transform="translate(5.644 9.289)">
            <rect id="Rectangle_14" data-name="Rectangle 14" width="12.875" height="5.124" transform="translate(0.599 0.599)" fill="#fff"/>
            <path id="Path_47" data-name="Path 47" d="M924.974,2118.422H910.9V2112.1h14.074Zm-12.875-1.2h11.677V2113.3H912.1Z" transform="translate(-910.9 -2112.1)" fill="#303e5c"/>
          </g>
          <g id="Group_50" data-name="Group 50" transform="translate(18.838 6.383)">
            <circle id="Ellipse_1" data-name="Ellipse 1" cx="0.909" cy="0.909" r="0.909" transform="translate(0.3 0.3)" fill="#4786bf"/>
            <path id="Path_48" data-name="Path 48" d="M1044.209,2085.417a1.209,1.209,0,1,1,1.209-1.209A1.206,1.206,0,0,1,1044.209,2085.417Zm0-1.808a.6.6,0,0,0-.609.609.609.609,0,1,0,.609-.609Z" transform="translate(-1043 -2083)" fill="#303e5c"/>
          </g>
          <g id="Group_51" data-name="Group 51" transform="translate(4.235 6.383)">
            <circle id="Ellipse_2" data-name="Ellipse 2" cx="0.909" cy="0.909" r="0.909" transform="translate(0.3 0.3)" fill="#de5253"/>
            <path id="Path_49" data-name="Path 49" d="M898.009,2085.417a1.209,1.209,0,1,1,1.209-1.209A1.206,1.206,0,0,1,898.009,2085.417Zm0-1.808a.605.605,0,0,0-.609.609.612.612,0,0,0,.609.61.609.609,0,0,0,0-1.219Z" transform="translate(-896.8 -2083)" fill="#303e5c"/>
          </g>
        </g>
      </g>
      <g id="Group_54" data-name="Group 54" transform="translate(15.442)">
        <path id="Path_50" data-name="Path 50" d="M374.043,668.037H372.3v-1.758a.779.779,0,1,0-1.558,0v1.758h-1.758a.779.779,0,0,0,0,1.558h1.758v1.758a.779.779,0,1,0,1.558,0V669.6h1.748a.779.779,0,1,0,0-1.558Z" transform="translate(-368.2 -642.397)" fill="#303e5c"/>
        <path id="Path_51" data-name="Path 51" d="M1240.243,936.237H1238.5v-1.758a.779.779,0,0,0-1.558,0v1.758h-1.758a.779.779,0,0,0,0,1.558h1.758v1.758a.779.779,0,1,0,1.558,0V937.8h1.748a.779.779,0,1,0,0-1.558Z" transform="translate(-1147.879 -883.807)" fill="#303e5c"/>
        <path id="Path_52" data-name="Path 52" d="M2135.843,436.737H2134.1v-1.758a.779.779,0,1,0-1.558,0v1.758h-1.758a.779.779,0,1,0,0,1.558h1.758v1.758a.779.779,0,1,0,1.558,0V438.3h1.748a.779.779,0,0,0,0-1.558Z" transform="translate(-1954.022 -434.2)" fill="#303e5c"/>
        <path id="Path_53" data-name="Path 53" d="M2346.043,882.737h-1.749v-1.758a.779.779,0,1,0-1.558,0v1.758h-1.758a.779.779,0,0,0,0,1.558h1.758v1.758a.779.779,0,1,0,1.558,0V884.3h1.749a.779.779,0,0,0,0-1.558Z" transform="translate(-2143.226 -835.651)" fill="#303e5c"/>
      </g>
      <g id="Group_90" data-name="Group 90" transform="translate(0 146.052)">
        <g id="Group_55" data-name="Group 55" transform="translate(6.652 0.949)">
          <path id="Path_54" data-name="Path 54" d="M288.431,1907.1H280.8a.6.6,0,0,1,0-1.2h7.631a.6.6,0,0,1,0,1.2Z" transform="translate(-280.2 -1905.9)" fill="#303e5c"/>
        </g>
        <g id="Group_56" data-name="Group 56" transform="translate(0 0.949)">
          <path id="Path_55" data-name="Path 55" d="M218.015,1907.1H214.2a.6.6,0,0,1,0-1.2h3.816a.6.6,0,0,1,0,1.2Z" transform="translate(-213.6 -1905.9)" fill="#303e5c"/>
        </g>
        <g id="Group_57" data-name="Group 57" transform="translate(16.701 0.949)">
          <path id="Path_56" data-name="Path 56" d="M399.728,1907.1H381.4a.6.6,0,0,1,0-1.2h18.329a.6.6,0,0,1,0,1.2Z" transform="translate(-380.8 -1905.9)" fill="#303e5c"/>
        </g>
        <g id="Group_58" data-name="Group 58" transform="translate(43.94 30.395)">
          <path id="Path_57" data-name="Path 57" d="M661.731,2201.9H654.1a.6.6,0,1,1,0-1.2h7.631a.6.6,0,1,1,0,1.2Z" transform="translate(-653.5 -2200.7)" fill="#303e5c"/>
        </g>
        <g id="Group_59" data-name="Group 59" transform="translate(37.287 30.395)">
          <path id="Path_58" data-name="Path 58" d="M591.315,2201.9H587.5a.6.6,0,1,1,0-1.2h3.816a.6.6,0,1,1,0,1.2Z" transform="translate(-586.9 -2200.7)" fill="#303e5c"/>
        </g>
        <g id="Group_60" data-name="Group 60" transform="translate(53.978 30.395)">
          <path id="Path_59" data-name="Path 59" d="M764.768,2201.9H754.6a.6.6,0,1,1,0-1.2h10.158a.6.6,0,0,1,.6.6A.593.593,0,0,1,764.768,2201.9Z" transform="translate(-754 -2200.7)" fill="#303e5c"/>
        </g>
        <g id="Group_61" data-name="Group 61" transform="translate(99.396 30.395)">
          <path id="Path_60" data-name="Path 60" d="M1216.931,2201.9H1209.3a.6.6,0,1,1,0-1.2h7.631a.6.6,0,1,1,0,1.2Z" transform="translate(-1208.7 -2200.7)" fill="#303e5c"/>
        </g>
        <g id="Group_62" data-name="Group 62" transform="translate(109.854 30.395)">
          <path id="Path_61" data-name="Path 61" d="M1317.815,2201.9H1314a.6.6,0,1,1,0-1.2h3.815a.6.6,0,1,1,0,1.2Z" transform="translate(-1313.4 -2200.7)" fill="#303e5c"/>
        </g>
        <g id="Group_63" data-name="Group 63" transform="translate(86.82 30.395)">
          <path id="Path_62" data-name="Path 62" d="M1093.557,2201.9H1083.4a.6.6,0,1,1,0-1.2h10.158a.6.6,0,1,1,0,1.2Z" transform="translate(-1082.8 -2200.7)" fill="#303e5c"/>
        </g>
        <g id="Group_64" data-name="Group 64" transform="translate(78.969)">
          <path id="Path_63" data-name="Path 63" d="M1012.43,1897.6H1004.8a.6.6,0,0,1,0-1.2h7.631a.6.6,0,0,1,0,1.2Z" transform="translate(-1004.2 -1896.4)" fill="#303e5c"/>
        </g>
        <g id="Group_65" data-name="Group 65" transform="translate(72.317)">
          <path id="Path_64" data-name="Path 64" d="M942.015,1897.6H938.2a.6.6,0,0,1,0-1.2h3.816a.6.6,0,0,1,0,1.2Z" transform="translate(-937.6 -1896.4)" fill="#303e5c"/>
        </g>
        <g id="Group_66" data-name="Group 66" transform="translate(89.008)">
          <path id="Path_65" data-name="Path 65" d="M1123.628,1897.6H1105.3a.6.6,0,0,1,0-1.2h18.329a.6.6,0,0,1,.6.6A.6.6,0,0,1,1123.628,1897.6Z" transform="translate(-1104.7 -1896.4)" fill="#303e5c"/>
        </g>
        <g id="Group_67" data-name="Group 67" transform="translate(176.198)">
          <path id="Path_66" data-name="Path 66" d="M1982.015,1897.6H1978.2a.6.6,0,0,1,0-1.2h3.816a.6.6,0,0,1,0,1.2Z" transform="translate(-1977.6 -1896.4)" fill="#303e5c"/>
        </g>
        <g id="Group_68" data-name="Group 68" transform="translate(110.214)">
          <path id="Path_67" data-name="Path 67" d="M1321.415,1897.6H1317.6a.6.6,0,0,1,0-1.2h3.816a.6.6,0,1,1,0,1.2Z" transform="translate(-1317 -1896.4)" fill="#303e5c"/>
        </g>
        <g id="Group_69" data-name="Group 69" transform="translate(146.602 25.87)">
          <path id="Path_68" data-name="Path 68" d="M1689.531,2156.6H1681.9a.6.6,0,1,1,0-1.2h7.631a.6.6,0,1,1,0,1.2Z" transform="translate(-1681.3 -2155.4)" fill="#303e5c"/>
        </g>
        <g id="Group_70" data-name="Group 70" transform="translate(139.949 25.87)">
          <path id="Path_69" data-name="Path 69" d="M1619.115,2156.6H1615.3a.6.6,0,0,1,0-1.2h3.816a.6.6,0,0,1,0,1.2Z" transform="translate(-1614.7 -2155.4)" fill="#303e5c"/>
        </g>
        <g id="Group_71" data-name="Group 71" transform="translate(156.65 25.87)">
          <path id="Path_70" data-name="Path 70" d="M1793.507,2156.6H1782.5a.6.6,0,1,1,0-1.2h11.007a.6.6,0,0,1,0,1.2Z" transform="translate(-1781.9 -2155.4)" fill="#303e5c"/>
        </g>
        <g id="Group_72" data-name="Group 72" transform="translate(205.214 25.87)">
          <path id="Path_71" data-name="Path 71" d="M2276.331,2156.6H2268.7a.6.6,0,0,1,0-1.2h7.631a.6.6,0,1,1,0,1.2Z" transform="translate(-2268.1 -2155.4)" fill="#303e5c"/>
        </g>
        <g id="Group_73" data-name="Group 73" transform="translate(198.562 25.87)">
          <path id="Path_72" data-name="Path 72" d="M2205.915,2156.6H2202.1a.6.6,0,0,1,0-1.2h3.816a.6.6,0,0,1,0,1.2Z" transform="translate(-2201.5 -2155.4)" fill="#303e5c"/>
        </g>
        <g id="Group_74" data-name="Group 74" transform="translate(215.263 25.87)">
          <path id="Path_73" data-name="Path 73" d="M2380.306,2156.6H2369.3a.6.6,0,0,1,0-1.2h11.007a.6.6,0,0,1,0,1.2Z" transform="translate(-2368.7 -2155.4)" fill="#303e5c"/>
        </g>
        <g id="Group_75" data-name="Group 75" transform="translate(182.431)">
          <path id="Path_74" data-name="Path 74" d="M2058.928,1897.6H2040.6a.6.6,0,0,1,0-1.2h18.329a.6.6,0,0,1,0,1.2Z" transform="translate(-2040 -1896.4)" fill="#303e5c"/>
        </g>
        <g id="Group_76" data-name="Group 76" transform="translate(139.46 45.478)">
          <path id="Path_75" data-name="Path 75" d="M1618.131,2353.1H1610.5a.7.7,0,0,1,0-1.4h7.631a.7.7,0,0,1,0,1.4Z" transform="translate(-1609.8 -2351.7)" fill="#303e5c"/>
        </g>
        <g id="Group_77" data-name="Group 77" transform="translate(132.808 45.478)">
          <path id="Path_76" data-name="Path 76" d="M1547.715,2353.1H1543.9a.7.7,0,0,1,0-1.4h3.816a.7.7,0,1,1,0,1.4Z" transform="translate(-1543.2 -2351.7)" fill="#303e5c"/>
        </g>
        <g id="Group_78" data-name="Group 78" transform="translate(149.498 45.478)">
          <path id="Path_77" data-name="Path 77" d="M1729.328,2353.1H1711a.7.7,0,0,1,0-1.4h18.329a.7.7,0,0,1,0,1.4Z" transform="translate(-1710.3 -2351.7)" fill="#303e5c"/>
        </g>
        <g id="Group_79" data-name="Group 79" transform="translate(21.975 45.478)">
          <path id="Path_78" data-name="Path 78" d="M441.93,2353.1H434.3a.7.7,0,0,1,0-1.4h7.631a.7.7,0,0,1,0,1.4Z" transform="translate(-433.6 -2351.7)" fill="#303e5c"/>
        </g>
        <g id="Group_80" data-name="Group 80" transform="translate(84.303 45.478)">
          <path id="Path_79" data-name="Path 79" d="M1065.93,2353.1H1058.3a.7.7,0,0,1,0-1.4h7.631a.7.7,0,1,1,0,1.4Z" transform="translate(-1057.6 -2351.7)" fill="#303e5c"/>
        </g>
        <g id="Group_81" data-name="Group 81" transform="translate(15.332 45.478)">
          <path id="Path_80" data-name="Path 80" d="M371.615,2353.1H367.8a.7.7,0,0,1,0-1.4h3.816a.7.7,0,0,1,0,1.4Z" transform="translate(-367.1 -2351.7)" fill="#303e5c"/>
        </g>
        <g id="Group_82" data-name="Group 82" transform="translate(97.388 45.478)">
          <path id="Path_81" data-name="Path 81" d="M1193.115,2353.1H1189.3a.7.7,0,0,1,0-1.4h3.816a.7.7,0,1,1,0,1.4Z" transform="translate(-1188.6 -2351.7)" fill="#303e5c"/>
        </g>
        <g id="Group_83" data-name="Group 83" transform="translate(200.05 45.478)">
          <path id="Path_82" data-name="Path 82" d="M2224.73,2353.1H2217.1a.7.7,0,0,1,0-1.4h7.631a.7.7,0,0,1,0,1.4Z" transform="translate(-2216.4 -2351.7)" fill="#303e5c"/>
        </g>
        <g id="Group_84" data-name="Group 84" transform="translate(213.125 45.478)">
          <path id="Path_83" data-name="Path 83" d="M2351.815,2353.1H2348a.7.7,0,0,1,0-1.4h3.816a.7.7,0,0,1,0,1.4Z" transform="translate(-2347.3 -2351.7)" fill="#303e5c"/>
        </g>
        <g id="Group_85" data-name="Group 85" transform="translate(17.35 15.832)">
          <path id="Path_84" data-name="Path 84" d="M395.63,2056.3H388a.7.7,0,0,1,0-1.4h7.631a.7.7,0,0,1,0,1.4Z" transform="translate(-387.3 -2054.9)" fill="#303e5c"/>
        </g>
        <g id="Group_86" data-name="Group 86" transform="translate(30.425 15.832)">
          <path id="Path_85" data-name="Path 85" d="M522.715,2056.3H518.9a.7.7,0,0,1,0-1.4h3.816a.7.7,0,1,1,0,1.4Z" transform="translate(-518.2 -2054.9)" fill="#303e5c"/>
        </g>
        <g id="Group_87" data-name="Group 87" transform="translate(113.929 15.832)">
          <path id="Path_86" data-name="Path 86" d="M1362.531,2056.3H1354.9a.7.7,0,1,1,0-1.4h7.631a.7.7,0,1,1,0,1.4Z" transform="translate(-1354.2 -2054.9)" fill="#303e5c"/>
        </g>
        <g id="Group_88" data-name="Group 88" transform="translate(127.014 15.832)">
          <path id="Path_87" data-name="Path 87" d="M1489.715,2056.3H1485.9a.7.7,0,1,1,0-1.4h3.816a.7.7,0,1,1,0,1.4Z" transform="translate(-1485.2 -2054.9)" fill="#303e5c"/>
        </g>
        <g id="Group_89" data-name="Group 89" transform="translate(32.023 45.478)">
          <path id="Path_88" data-name="Path 88" d="M553.228,2353.1H534.9a.7.7,0,0,1,0-1.4h18.329a.7.7,0,0,1,0,1.4Z" transform="translate(-534.2 -2351.7)" fill="#303e5c"/>
        </g>
      </g>
      <g id="Group_144" data-name="Group 144" transform="translate(23.112 43.96)">
        <g id="Group_110" data-name="Group 110" transform="translate(0 8.66)">
          <g id="Group_91" data-name="Group 91" transform="translate(12.746 14.773)">
            <rect id="Rectangle_15" data-name="Rectangle 15" width="5.314" height="6.473" transform="translate(1.793 0.695) rotate(9.776)" fill="#fce3e0"/>
            <path id="Path_89" data-name="Path 89" d="M579.013,1117.56l-6.413-1.109,1.3-7.551,6.413,1.109Zm-5.034-2.078,4.055.7.9-5.194-4.055-.7Z" transform="translate(-572.6 -1108.9)" fill="#303e5c"/>
          </g>
          <g id="Group_96" data-name="Group 96" transform="translate(6.554)">
            <g id="Group_92" data-name="Group 92" transform="translate(0.838 0.929)">
              <path id="Path_90" data-name="Path 90" d="M534.784,976.345c-5.244-.719-7.561,3.286-8.36,8.35a.64.64,0,0,0-.579-.17c-.25.07-.5.439-.639.769-.39.959.04,1.878.959,1.568,0,0,1.608,7.082,6.493,7.751,6.622.909,9.879-2.088,10.6-7.371A9.764,9.764,0,0,0,534.784,976.345Z" transform="translate(-524.455 -975.666)" fill="#fce3e0"/>
              <path id="Path_91" data-name="Path 91" d="M529.423,990.017h0a17.22,17.22,0,0,1-2.307-.17c-4.475-.609-6.363-5.973-6.862-7.691a1.3,1.3,0,0,1-.989-.569,2.016,2.016,0,0,1-.08-1.878c.09-.22.43-.959,1.039-1.119a2.046,2.046,0,0,1,.26-.04c1.278-6.792,4.844-8.25,7.651-8.25a9.183,9.183,0,0,1,1.259.09,10.508,10.508,0,0,1,6.922,3.975,10.086,10.086,0,0,1,2.058,7.6C537.663,987.23,534.567,990.017,529.423,990.017Zm-8.281-9.289.15.639c.02.07,1.578,6.692,5.993,7.292a16.477,16.477,0,0,0,2.148.16c4.525,0,7.142-2.357,7.781-7.012a8.873,8.873,0,0,0-1.818-6.7,9.347,9.347,0,0,0-6.143-3.526,8.487,8.487,0,0,0-1.1-.08c-3.546,0-5.763,2.667-6.593,7.931l-.2,1.269-.819-.929a1.408,1.408,0,0,0-.24.4.87.87,0,0,0-.03.759.094.094,0,0,0,.09.05.639.639,0,0,0,.15-.03Z" transform="translate(-518.994 -970.3)" fill="#303e5c"/>
            </g>
            <g id="Group_93" data-name="Group 93" transform="translate(14.849 10.381)">
              <path id="Path_92" data-name="Path 92" d="M662.755,1065.337a.288.288,0,0,0-.34-.05,4.54,4.54,0,0,1-.679-.13c-.759-.18-1.618-.38-2.1-.05a.711.711,0,0,0-.31.519.245.245,0,0,0,.01.12,1.084,1.084,0,0,0-.06.26,1.112,1.112,0,0,0,.829,1.318,1.1,1.1,0,0,0,1.149-1.038,1.434,1.434,0,0,0-.07-.659c.15.03.3.07.43.1.629.15.949.22,1.149.03A.32.32,0,0,0,662.755,1065.337Z" transform="translate(-659.265 -1064.931)" fill="#303e5c"/>
              <path id="Path_93" data-name="Path 93" d="M663.548,1073.975c-.03.23.06.44.21.46s.3-.15.33-.39-.06-.439-.21-.459S663.578,1073.735,663.548,1073.975Z" transform="translate(-663.115 -1072.72)" fill="#fff1f1"/>
            </g>
            <g id="Group_94" data-name="Group 94" transform="translate(5.699 8.968)">
              <path id="Path_94" data-name="Path 94" d="M567.806,1050.821a.272.272,0,0,1,.34.04,4.94,4.94,0,0,0,.689.06c.779.03,1.668.07,2.038.51a.726.726,0,0,1,.16.589.357.357,0,0,1-.04.11,1.132,1.132,0,0,1-.01.26,1.014,1.014,0,1,1-1.978-.28,1.269,1.269,0,0,1,.25-.619c-.16-.01-.31-.02-.44-.02-.649-.03-.969-.04-1.119-.28A.275.275,0,0,1,567.806,1050.821Z" transform="translate(-567.663 -1050.779)" fill="#303e5c"/>
              <path id="Path_95" data-name="Path 95" d="M591.46,1063.445c-.03.23-.18.41-.33.39s-.25-.23-.21-.459.18-.409.33-.39S591.49,1063.205,591.46,1063.445Z" transform="translate(-588.589 -1061.765)" fill="#fff1f1"/>
            </g>
            <path id="Path_96" data-name="Path 96" d="M606.37,1123.832a3.338,3.338,0,0,1-1.468-.54,1.368,1.368,0,0,1-.619-1.338c.02-.16.12-.27.21-.26s.16.15.14.31c-.08.55.739,1.119,1.808,1.269s2.008-.18,2.088-.729c.02-.16.12-.27.21-.26s.16.15.14.31C608.727,1123.732,607.428,1123.972,606.37,1123.832Z" transform="translate(-594.914 -1105.643)" fill="#303e5c"/>
            <path id="Path_97" data-name="Path 97" d="M570.951,1092.322a.973.973,0,1,1-.829-1.1A.984.984,0,0,1,570.951,1092.322Z" transform="translate(-563.181 -1078.208)" fill="#e8beb2"/>
            <path id="Path_98" data-name="Path 98" d="M668.232,1097.622a.973.973,0,1,1-.829-1.1A.983.983,0,0,1,668.232,1097.622Z" transform="translate(-650.743 -1082.979)" fill="#e8beb2"/>
            <g id="Group_95" data-name="Group 95">
              <path id="Path_99" data-name="Path 99" d="M536.488,970.968c-2.028-3.056-8.121-4.685-12.116-3.826-5.913-.4-7.911,3.156-7.751,9.169.11,4.175,3.935,6.732,3.935,6.732a19.267,19.267,0,0,1-2-4.595c-1.139.529-1.209-1.139-.729-2.048.569-1.079,1-.22,1-.22.17-.609,1.4-4.245,3.556-5.534,0,0,14.084,7.491,12.4,2.847.859,1.368,1.428,4,.859,5.344C535.649,978.839,538.8,974.454,536.488,970.968Z" transform="translate(-516.012 -966.324)" fill="#ac805f"/>
              <path id="Path_100" data-name="Path 100" d="M515.152,978.32a.557.557,0,0,1-.33-.1c-.17-.11-4.085-2.777-4.205-7.212-.1-3.716.609-6.3,2.178-7.9a7.09,7.09,0,0,1,5.294-1.918c.27,0,.549.01.829.03a11.7,11.7,0,0,1,2.367-.22,16.424,16.424,0,0,1,5.893,1.129,9.25,9.25,0,0,1,4.4,3.2,6.5,6.5,0,0,1,.519,5.763,11.476,11.476,0,0,1-1.368,2.8.6.6,0,0,1-1.039-.589,5.685,5.685,0,0,0-.16-3.3,2.167,2.167,0,0,1-1.209.3c-2.927,0-9.739-3.446-11.307-4.265-1.7,1.248-2.807,4.225-3.016,4.994a.608.608,0,0,1-.529.449.626.626,0,0,1-.49-.18c-.01.02-.03.05-.04.07a1.852,1.852,0,0,0-.16,1.269c.02-.01.06-.02.1-.04a.582.582,0,0,1,.5,0,.6.6,0,0,1,.33.379,19.124,19.124,0,0,0,1.9,4.385.6.6,0,0,1,.13.38.576.576,0,0,1-.589.579Zm-2.607-4.5c.15.29.31.569.469.829-.11-.309-.21-.589-.28-.809A1.361,1.361,0,0,1,512.545,973.815Zm5.554-11.427a5.873,5.873,0,0,0-4.435,1.548c-1.328,1.358-1.928,3.656-1.838,7.022a.792.792,0,0,1,.08-.16c.3-.569.679-.859,1.109-.859a.343.343,0,0,1,.1.01c.479-1.318,1.658-3.985,3.576-5.134a.591.591,0,0,1,.589-.01c.08.04,8.111,4.3,11.057,4.3.39,0,.549-.08.579-.12s.05-.22-.08-.589a.6.6,0,0,1,1.069-.519,8.613,8.613,0,0,1,1.049,2.9v.01a5.391,5.391,0,0,0-.36-4.774c-1.428-2.158-5.424-3.786-9.3-3.786a10.109,10.109,0,0,0-2.2.22.473.473,0,0,1-.17.01A4.7,4.7,0,0,0,518.1,962.389Z" transform="translate(-510.608 -961)" fill="#303e5c"/>
            </g>
          </g>
          <g id="Group_109" data-name="Group 109" transform="translate(0 21.146)">
            <g id="Group_99" data-name="Group 99" transform="translate(22.319 1.558)">
              <g id="Group_97" data-name="Group 97" transform="translate(22.281 16.801)">
                <path id="Path_101" data-name="Path 101" d="M899.9,1363.328c.23-.01,1.938-.539,2.837-.679,2.6-.42,3.746,1.428,2.986,2.237-.279.3-4.295.39-4.545.36C900.6,1365.186,899.9,1363.328,899.9,1363.328Z" transform="translate(-899.061 -1361.98)" fill="#fce3e0"/>
                <path id="Path_102" data-name="Path 102" d="M893.807,1360.365a1.135,1.135,0,0,1-.24-.01c-.789-.07-1.408-1.3-1.778-2.307l-.29-.769.809-.03c.11-.02.48-.12.789-.2.639-.17,1.438-.39,2-.479a4.714,4.714,0,0,1,.829-.07,3.133,3.133,0,0,1,2.937,1.6,1.535,1.535,0,0,1-.24,1.708c-.2.21-.469.36-2.357.469C895.3,1360.336,894.247,1360.365,893.807,1360.365Zm-.08-1.2h.07a29.042,29.042,0,0,0,3.975-.25.432.432,0,0,0-.03-.34,1.921,1.921,0,0,0-1.838-.879,4.812,4.812,0,0,0-.639.05c-.5.08-1.3.29-1.878.45-.08.02-.16.04-.23.06A4.159,4.159,0,0,0,893.727,1359.167Z" transform="translate(-891.5 -1356.5)" fill="#303e5c"/>
              </g>
              <g id="Group_98" data-name="Group 98">
                <path id="Path_103" data-name="Path 103" d="M683.912,1208c4.085,3.067,12.356,3.067,13.335,4.035.28.27.27,2.207.27,2.207-4.685,1.9-14.084-1.558-15.522-2.767-1.8-1.518-5.843-9.479-7.132-11.4-.9-1.349-.519-5.4,1.229-5.724S683.912,1208,683.912,1208Z" transform="translate(-673.797 -1193.742)" fill="#fff"/>
                <path id="Path_104" data-name="Path 104" d="M688.74,1209.945c-4.755,0-11.117-2.307-12.486-3.466-1.318-1.109-3.566-5.1-5.374-8.321-.789-1.4-1.468-2.607-1.868-3.2a6.215,6.215,0,0,1-.1-5.024,2.387,2.387,0,0,1,1.708-1.618.888.888,0,0,1,.17-.02c.679,0,1.4.7,2.487,2.407.729,1.149,1.608,2.747,2.607,4.745,1.5,2.987,2.837,6.013,3.146,6.7,2.487,1.788,6.532,2.457,9.5,2.957,2.218.37,3.3.569,3.776,1.039.13.12.459.449.449,2.637v.4l-.37.15A9.565,9.565,0,0,1,688.74,1209.945Zm-17.949-20.436c-.38.11-.639.6-.769.889a5.194,5.194,0,0,0-.01,3.9c.419.629,1.109,1.858,1.908,3.276,1.578,2.8,3.956,7.032,5.1,7.991.969.819,6.9,3.187,11.717,3.187a9.282,9.282,0,0,0,2.817-.38,8.331,8.331,0,0,0-.13-1.4,16.7,16.7,0,0,0-3.087-.679c-3.136-.529-7.431-1.239-10.138-3.276l-.13-.1-.06-.15c-.01-.03-1.428-3.276-3.056-6.552C672.059,1190.448,671.03,1189.619,670.791,1189.509Z" transform="translate(-668.437 -1188.3)" fill="#303e5c"/>
              </g>
            </g>
            <g id="Group_100" data-name="Group 100" transform="translate(0.544 0)">
              <path id="Path_105" data-name="Path 105" d="M480.234,1180.6c1.169,2.907-5.434,23.243-5.434,23.243s-19.558,3.316-18.369-.569c1.648-5.414,4.665-22.415,6.293-23.963S479.634,1179.109,480.234,1180.6Z" transform="translate(-455.785 -1178.031)" fill="#fff"/>
              <path id="Path_106" data-name="Path 106" d="M456.223,1200.428c-4.075,0-5.094-.739-5.5-1.288a1.5,1.5,0,0,1-.21-1.369c.609-1.988,1.408-5.6,2.257-9.419,1.888-8.53,3.116-13.784,4.2-14.8.889-.849,3.945-.849,5.1-.849a61.534,61.534,0,0,1,8.251.609c4.7.689,4.994,1.4,5.124,1.738.2.5.8,2.008-2.257,13.1-1.488,5.394-3.146,10.5-3.156,10.558l-.11.35-.36.06A103.85,103.85,0,0,1,456.223,1200.428Zm5.833-26.54c-3.686,0-4.255.5-4.275.519-.17.16-.669.949-1.688,4.9-.7,2.687-1.438,6.043-2.158,9.29-.849,3.845-1.658,7.472-2.277,9.509a.319.319,0,0,0,.03.31c.14.19.879.809,4.545.809A96.8,96.8,0,0,0,469,1197.981c.4-1.239,1.778-5.593,3.037-10.158,2.587-9.379,2.507-11.707,2.317-12.276-.24-.2-1.438-.659-4.5-1.089A58.786,58.786,0,0,0,462.056,1173.889Z" transform="translate(-450.433 -1172.7)" fill="#303e5c"/>
            </g>
            <g id="Group_104" data-name="Group 104">
              <g id="Group_101" data-name="Group 101" transform="translate(0.88 68.751)">
                <path id="Path_107" data-name="Path 107" d="M464.585,1868.1l-.26-.849-4.525-.15v2.208c0,.559.06,1.538.429,1.538l5.134.669c.559,0,2.767-.15,3.256-.919C469.579,1869.138,464.585,1868.1,464.585,1868.1Z" transform="translate(-459.201 -1866.49)" fill="#676767"/>
                <path id="Path_108" data-name="Path 108" d="M459.963,1866.634h-.04l-5.144-.669c-.979-.05-.979-1.618-.979-2.137V1861l5.574.19.28.919c1.179.27,3.7.989,4.2,2.167a1.227,1.227,0,0,1-.12,1.169C462.969,1866.624,460.093,1866.634,459.963,1866.634Zm-4.874-1.838,4.914.639c1.049-.01,2.5-.3,2.717-.649.02-.03.02-.04.02-.05h0s-.14-.43-1.748-1a17.794,17.794,0,0,0-1.938-.549l-.35-.07-.24-.779-3.476-.12v1.588A5.015,5.015,0,0,0,455.089,1864.8Z" transform="translate(-453.8 -1861)" fill="#303e5c"/>
              </g>
              <g id="Group_102" data-name="Group 102" transform="translate(10.379 68.751)">
                <path id="Path_109" data-name="Path 109" d="M559.685,1868.1l-.26-.849-4.525-.15v2.208c0,.559.06,1.538.43,1.538l5.134.669c.559,0,2.767-.15,3.256-.919C564.669,1869.138,559.685,1868.1,559.685,1868.1Z" transform="translate(-554.301 -1866.49)" fill="#676767"/>
                <path id="Path_110" data-name="Path 110" d="M555.063,1866.634h-.04l-5.144-.669c-.979-.05-.979-1.618-.979-2.137V1861l5.574.19.28.919c1.179.27,3.7.989,4.2,2.167a1.227,1.227,0,0,1-.12,1.169C558.059,1866.624,555.183,1866.634,555.063,1866.634Zm-4.874-1.838,4.914.639c1.049-.01,2.5-.3,2.717-.649.02-.03.02-.04.02-.05h0s-.14-.43-1.748-1a17.8,17.8,0,0,0-1.938-.549l-.35-.07-.24-.779-3.476-.12v1.588A4.331,4.331,0,0,0,550.188,1864.8Z" transform="translate(-548.9 -1861)" fill="#303e5c"/>
              </g>
              <g id="Group_103" data-name="Group 103">
                <path id="Path_111" data-name="Path 111" d="M471.7,1185.362c.29-2.018.709-5.763.709-5.763l-1.948-.32-1.458,9.4h-7.352l.969-9.979h-2.477s-.07,4.415-.35,6.223c-.859,5.454-6.393,11.4-6.393,11.4-4.115,11.247-.829,11.467-.18,20.117.04.529-2.317,31.923-2.317,31.923h6.133l2.208-24.052,2.5-14.943c.779,2.327.07,10.348.34,13.984.04.53-1.638,25.011-1.638,25.011h6.153l2.207-24.052,1.209-12.845.17-7.542s.31-.1,1.828-7.651C472,1196.25,471.187,1188.988,471.7,1185.362Z" transform="translate(-450.31 -1178.101)" fill="#4786bf"/>
                <path id="Path_112" data-name="Path 112" d="M461.272,1243.549h-6.133a.612.612,0,0,1-.439-.19.571.571,0,0,1-.16-.449c.659-9.649,1.638-24.212,1.628-24.941-.11-1.458-.06-3.556-.02-5.773.02-1.078.05-2.2.05-3.266l-1.678,10.038-2.2,24.033a.606.606,0,0,1-.6.549H445.59a.6.6,0,0,1-.44-.19.624.624,0,0,1-.16-.449c.639-8.56,2.307-30.9,2.317-31.854a33.8,33.8,0,0,0-1.079-6.2c-.909-3.656-1.568-6.3,1.3-14.144a.665.665,0,0,1,.12-.2c.05-.06,5.414-5.883,6.243-11.087.28-1.738.34-6.093.34-6.133a.593.593,0,0,1,.6-.589h2.477a.57.57,0,0,1,.439.2.6.6,0,0,1,.15.46l-.9,9.319h6.173l1.378-8.89a.559.559,0,0,1,.24-.389.647.647,0,0,1,.449-.11l1.948.32a.607.607,0,0,1,.5.659c0,.04-.419,3.776-.709,5.783-.5,3.516.29,10.668.3,10.738a.546.546,0,0,1-.01.18c-.629,3.146-1.129,5.4-1.488,6.7a5.989,5.989,0,0,1-.33,1l-.17,7.392v.04l-1.209,12.845L461.861,1243A.6.6,0,0,1,461.272,1243.549Zm-5.5-1.2h4.944l2.157-23.513,1.209-12.825.17-7.521a.6.6,0,0,1,.11-.34c.08-.18.5-1.309,1.708-7.332-.1-.9-.779-7.461-.29-10.947.22-1.518.509-4.065.639-5.184l-.789-.13-1.358,8.8a.608.608,0,0,1-.589.509h-7.352a.57.57,0,0,1-.44-.2.6.6,0,0,1-.15-.459l.9-9.319h-1.229c-.03,1.278-.12,4.265-.35,5.714a20.372,20.372,0,0,1-3.616,7.991,36.548,36.548,0,0,1-2.847,3.636c-2.7,7.411-2.108,9.769-1.219,13.335a35.365,35.365,0,0,1,1.109,6.423c.04.519-1.668,23.333-2.267,31.374h4.944l2.158-23.513a.06.06,0,0,1,.01-.04l2.5-14.943a.6.6,0,0,1,1.159-.09c.5,1.508.43,5.044.36,8.45-.05,2.2-.09,4.265.01,5.674C457.4,1218.4,456.207,1235.958,455.768,1242.35Z" transform="translate(-444.989 -1172.7)" fill="#303e5c"/>
              </g>
            </g>
            <g id="Group_108" data-name="Group 108" transform="translate(5.359 0.11)">
              <g id="Group_105" data-name="Group 105" transform="translate(24.251 10.698)">
                <path id="Path_113" data-name="Path 113" d="M750.985,1289.96l-.25,1.438-.879.2-.719-.479.25-1.418a1.776,1.776,0,0,0-1.189,1.368,3.092,3.092,0,0,0,.629,1.8l-1.318,7.531a1.214,1.214,0,0,0-.05.18.988.988,0,0,0,.579,1.259c.46.1.929-.29,1.069-.889a1.513,1.513,0,0,0,.03-.419l1.3-7.382s1.109-.709,1.239-1.468A1.781,1.781,0,0,0,750.985,1289.96Z" transform="translate(-746.822 -1288.821)" fill="#676767"/>
                <path id="Path_114" data-name="Path 114" d="M742.784,1294.524h0a1.288,1.288,0,0,1-1.2-.809,1.946,1.946,0,0,1-.11-1.2.892.892,0,0,1,.06-.2l1.269-7.232a2.933,2.933,0,0,1-.589-2.038,2.371,2.371,0,0,1,1.588-1.838l.949-.31-.36,2.028.18.12.24-.06.349-2.008.779.589a2.336,2.336,0,0,1,.909,2.3,2.934,2.934,0,0,1-1.279,1.718l-1.239,7.062a1.841,1.841,0,0,1-.05.519A1.624,1.624,0,0,1,742.784,1294.524Zm.689-10.788a3.759,3.759,0,0,0,.449.849l.15.209-1.378,7.831-.02.05c-.01.04-.02.07-.03.1a.622.622,0,0,0,.03.43c.03.06.07.11.1.11h.01c.09,0,.27-.15.34-.44a.974.974,0,0,0,.02-.24l-.01-.08,1.358-7.711.22-.14a3.672,3.672,0,0,0,.739-.649l-1.109.26Z" transform="translate(-741.428 -1280.9)" fill="#303e5c"/>
              </g>
              <g id="Group_106" data-name="Group 106" transform="translate(22.962 17.53)">
                <path id="Path_115" data-name="Path 115" d="M734.584,1356.887c.18.09,1.978-.27,2.757-.12a1.365,1.365,0,0,1,1.179,1.249c.05.21.759,2.218-.16,2.507a3.614,3.614,0,0,1-2.177-.619c-.43-.33-1.249-.9-1.438-1.019C734.324,1358.594,734.584,1356.887,734.584,1356.887Z" transform="translate(-733.906 -1355.987)" fill="#fce3e0"/>
                <path id="Path_116" data-name="Path 116" d="M732.771,1354.464a4.61,4.61,0,0,1-2.337-.769c-.419-.32-1.239-.879-1.408-1-.479-.33-.619-1.2-.42-2.577l.12-.819.639.32c.13-.01.36-.03.589-.06a14.254,14.254,0,0,1,1.488-.11,3.626,3.626,0,0,1,.629.05,1.925,1.925,0,0,1,1.628,1.628c0,.02.01.04.01.06a.232.232,0,0,0,.03.09,6.78,6.78,0,0,1,.29,1.408c.09,1.229-.509,1.608-.879,1.728A1.412,1.412,0,0,1,732.771,1354.464Zm-3.007-2.717c.27.19.989.689,1.388.989a3.493,3.493,0,0,0,1.608.519h.02c.04-.06.17-.4-.2-1.638a.883.883,0,0,1-.04-.16c-.01-.03-.01-.06-.02-.09a.734.734,0,0,0-.689-.7,2.386,2.386,0,0,0-.4-.03c-.41,0-.939.06-1.358.1-.13.01-.24.03-.35.04A3.748,3.748,0,0,0,729.764,1351.747Z" transform="translate(-728.518 -1349.3)" fill="#303e5c"/>
              </g>
              <g id="Group_107" data-name="Group 107">
                <path id="Path_117" data-name="Path 117" d="M514.112,1193.4c4.085,3.066,12.356,3.066,13.335,4.035.28.27.27,2.207.27,2.207-4.685,1.9-14.084-1.558-15.522-2.767-1.8-1.518-5.843-9.479-7.132-11.4-.9-1.349-.519-5.4,1.229-5.724S514.112,1193.4,514.112,1193.4Z" transform="translate(-503.998 -1179.152)" fill="#fff"/>
                <path id="Path_118" data-name="Path 118" d="M518.94,1195.445c-4.755,0-11.117-2.307-12.486-3.466-1.318-1.109-3.566-5.1-5.374-8.321-.789-1.4-1.468-2.607-1.868-3.2a6.215,6.215,0,0,1-.1-5.024,2.388,2.388,0,0,1,1.708-1.618.878.878,0,0,1,.17-.02c.679,0,1.4.7,2.487,2.407.729,1.149,1.608,2.747,2.607,4.745,1.5,2.987,2.837,6.013,3.146,6.7,2.487,1.788,6.533,2.457,9.5,2.957,2.217.369,3.3.569,3.776,1.039.13.12.46.449.45,2.637v.4l-.37.15A9.8,9.8,0,0,1,518.94,1195.445ZM500.981,1175c-.38.11-.639.6-.769.889a5.194,5.194,0,0,0-.01,3.9c.42.629,1.109,1.858,1.908,3.276,1.578,2.8,3.956,7.032,5.1,7.991.969.819,6.9,3.187,11.716,3.187a9.281,9.281,0,0,0,2.817-.38,8.331,8.331,0,0,0-.13-1.4,16.677,16.677,0,0,0-3.086-.679c-3.136-.53-7.431-1.239-10.138-3.276l-.13-.1-.06-.15c-.01-.03-1.428-3.276-3.057-6.552C502.259,1175.938,501.22,1175.119,500.981,1175Z" transform="translate(-498.637 -1173.8)" fill="#303e5c"/>
              </g>
            </g>
          </g>
        </g>
        <g id="Group_143" data-name="Group 143" transform="translate(5.542)">
          <g id="Group_111" data-name="Group 111" transform="translate(0 23.793)">
            <path id="Path_119" data-name="Path 119" d="M526.784,1185.353H507.556s-3.616-12.426,2.657-24.751,50.772-17.74,50.772-17.74,18.908-12.745,34.52-18.908,25.061-5.524,42.062-5.524,48.534,3.616,52.15,5.524,16.891,16.141,17.839,18.269.849,16.571.849,16.571a18.256,18.256,0,0,1,4.145,2.867c1.908,1.808,1.488,16.141-2.128,18.269a21.555,21.555,0,0,1-7.751,2.547l-39.085,1.379-98.347,2.018Z" transform="translate(-505.915 -1117.82)" fill="#ffb825"/>
            <path id="Path_120" data-name="Path 120" d="M559.789,1181.161h-.01l-38.446-.529H501.665l-.13-.43a33.693,33.693,0,0,1-1.049-7.9,36.343,36.343,0,0,1,3.746-17.28c2.677-5.274,12.146-9.919,28.128-13.8a228.3,228.3,0,0,1,22.964-4.245c1.638-1.1,19.667-13.025,34.51-18.888,13.165-5.194,22.065-5.583,34.131-5.583,1.229,0,2.487,0,3.8.01,1.4,0,2.847.01,4.345.01,17.25,0,48.694,3.616,52.43,5.594s17.11,16.321,18.109,18.549c.929,2.058.919,13.844.909,16.451a18.874,18.874,0,0,1,3.956,2.8c1.348,1.269,1.558,6.483,1.079,10.738-.3,2.617-1.119,7.192-3.306,8.48a22.026,22.026,0,0,1-8,2.627h-.04l-39.085,1.378Zm-57.214-1.728h18.758l38.446.529,98.337-2.018,39.055-1.378a21.093,21.093,0,0,0,7.491-2.468c1.248-.739,2.267-3.576,2.727-7.581.529-4.685.06-9.01-.709-9.739a17.9,17.9,0,0,0-3.985-2.767l-.34-.16v-.38c.04-5.753-.14-14.843-.8-16.321-.37-.819-3.4-4.435-7.811-9.049-4.515-4.714-8.261-8.141-9.769-8.94-1.618-.859-10-2.228-20.836-3.416-11.707-1.279-23.313-2.038-31.024-2.038-1.508,0-2.957,0-4.355-.01-1.309,0-2.567-.01-3.786-.01-11.936,0-20.726.379-33.691,5.5-15.372,6.063-34.211,18.719-34.4,18.848l-.12.08-.14.02a227.708,227.708,0,0,0-22.974,4.235c-15.4,3.746-24.851,8.3-27.329,13.175a36.7,36.7,0,0,0-2.747,23.883Z" transform="translate(-500.474 -1112.5)" fill="#303e5c"/>
          </g>
          <g id="Group_112" data-name="Group 112" transform="translate(59.494 27.748)">
            <path id="Path_121" data-name="Path 121" d="M1102.2,1182.159c-1.169-.639,13.175-11.047,25.7-16.671s20.5-6.693,24.112-7.112,50.532-.26,53,.959,17.31,7.651,11.257,13.594S1103.365,1182.788,1102.2,1182.159Z" transform="translate(-1101.527 -1157.557)" fill="#d9eced"/>
            <path id="Path_122" data-name="Path 122" d="M1098.543,1177.361c-1.808,0-1.918-.06-2.068-.14a.724.724,0,0,1-.379-.669c.01-.29.03-.779,2.577-2.837,1.538-1.239,3.7-2.807,6.083-4.4a127.1,127.1,0,0,1,17.46-9.849c12.995-5.833,21.2-6.8,24.282-7.162,1.139-.13,6.343-.21,13.9-.21,8.45,0,17.67.1,24.662.27,13.495.33,14.414.779,14.763.949.16.08.36.18.609.29,4.974,2.357,11.657,5.973,12.356,10.148a4.58,4.58,0,0,1-1.558,4.125c-1.878,1.848-11.337,3.136-18.289,3.955-8.82,1.029-20.616,2.018-35.06,2.947C1131.365,1176.472,1105.155,1177.361,1098.543,1177.361Zm-.839-1.2c.22,0,.489.01.839.01,6.592,0,32.762-.889,59.282-2.577,14.424-.919,26.2-1.908,35-2.937,13.724-1.608,16.91-2.957,17.58-3.616a3.4,3.4,0,0,0,1.219-3.067c-.679-4.035-8.97-7.971-11.687-9.259q-.389-.18-.629-.3c-.25-.12-2.028-.529-14.294-.829-6.982-.17-16.181-.27-24.6-.27-7.411,0-12.685.08-13.764.21-3.036.36-11.107,1.308-23.933,7.072a125.6,125.6,0,0,0-16.91,9.5A57.44,57.44,0,0,0,1097.7,1176.162Z" transform="translate(-1096.095 -1152.1)" fill="#303e5c"/>
          </g>
          <g id="Group_116" data-name="Group 116" transform="translate(62.315 28.591)">
            <g id="Group_113" data-name="Group 113" transform="translate(51.527 0.106)">
              <path id="Path_123" data-name="Path 123" d="M1653.924,1167.6l-5.624,20.446,10.508-.9,1.279-19.547Z" transform="translate(-1647.491 -1167.001)" fill="#504b45"/>
              <path id="Path_124" data-name="Path 124" d="M1640.2,1183.315l5.983-21.715h7.251l-1.348,20.7Zm6.892-20.517-5.284,19.178,9.14-.789,1.2-18.389Z" transform="translate(-1640.2 -1161.6)" fill="#303e5c"/>
            </g>
            <g id="Group_114" data-name="Group 114">
              <path id="Path_125" data-name="Path 125" d="M1128.93,1221.515c-.45,0-.819,0-1.119-.01-.969-.02-1.418-.03-1.538-.539a84.479,84.479,0,0,1-1.448-27.219,82.89,82.89,0,0,1,2.088-12.216.6.6,0,1,1,1.158.32,82.2,82.2,0,0,0-2.058,12.046,83.818,83.818,0,0,0,1.329,26.4c5.054.28,60.78-1.758,82.8-2.607,1.448-1.758,11.706-14.2,14.244-17.81,2.607-3.716,6.482-13.944,6.9-18.249.33-3.356-7.1-15.692-10-20.167a.6.6,0,1,1,1.009-.649c.03.04,2.667,4.135,5.224,8.7,3.476,6.213,5.144,10.328,4.954,12.236-.449,4.535-4.375,14.913-7.112,18.819s-13.994,17.52-14.473,18.089a.626.626,0,0,1-.44.22c-.209.01-21.1.809-41.742,1.518-12.126.42-21.785.719-28.727.909-4.125.11-7.322.18-9.5.2C1129.909,1221.515,1129.39,1221.515,1128.93,1221.515Z" transform="translate(-1124.339 -1160.539)" fill="#303e5c"/>
            </g>
            <g id="Group_115" data-name="Group 115" transform="translate(56.21 1.172)">
              <path id="Path_126" data-name="Path 126" d="M1688.305,1229.873a.607.607,0,0,1-.6-.559,214.4,214.4,0,0,1,.8-41.193,118.475,118.475,0,0,1,2.727-15.4.6.6,0,0,1,1.159.32,118.333,118.333,0,0,0-2.7,15.262,212.7,212.7,0,0,0-.789,40.933.594.594,0,0,1-.549.639Z" transform="translate(-1687.085 -1172.277)" fill="#303e5c"/>
            </g>
          </g>
          <g id="Group_117" data-name="Group 117" transform="translate(1.954 60.111)">
            <path id="Path_127" data-name="Path 127" d="M526.1,1492.088s10.838,1.418,12.785-.16,8.6-6.442,7.012-9.059-16.141,2.587-16.141,2.587Z" transform="translate(-525.494 -1481.531)" fill="#d9eced"/>
            <path id="Path_128" data-name="Path 128" d="M528.823,1487.846h0a75.306,75.306,0,0,1-8.26-.589.623.623,0,0,1-.46-.32.585.585,0,0,1,.01-.559l3.656-6.642a.622.622,0,0,1,.32-.28c.38-.14,9.439-3.356,14.034-3.356,1.478,0,2.4.34,2.817,1.029,1.728,2.837-3.636,7.072-6.513,9.339-.24.19-.459.36-.629.5C533.338,1487.337,532.309,1487.846,528.823,1487.846Zm-7.232-1.678a69.734,69.734,0,0,0,7.232.479h0c3.126,0,4-.429,4.225-.609.18-.14.4-.32.639-.509a40.334,40.334,0,0,0,4.585-4.045c1.079-1.169,2.237-2.767,1.658-3.726-.06-.11-.38-.449-1.8-.449-4.015,0-12.016,2.727-13.425,3.216Z" transform="translate(-520.037 -1476.1)" fill="#303e5c"/>
          </g>
          <g id="Group_118" data-name="Group 118" transform="translate(194.911 48.764)">
            <path id="Path_129" data-name="Path 129" d="M2464.817,1379.083a2.113,2.113,0,0,1-2.228-.03c-2.087-1.4-5.963-7.661-4.265-10.219.709-1.069,6.093.43,6.093.43Z" transform="translate(-2457.297 -1367.856)" fill="#ee4037"/>
            <path id="Path_130" data-name="Path 130" d="M2458.208,1374.636a2.569,2.569,0,0,1-1.439-.44,14.137,14.137,0,0,1-3.756-4.9c-.759-1.528-1.857-4.365-.679-6.143a2.18,2.18,0,0,1,1.848-.649,23.883,23.883,0,0,1,4.9.829.6.6,0,0,1,.44.549l.4,9.829a.608.608,0,0,1-.28.529A2.766,2.766,0,0,1,2458.208,1374.636Zm-4.875-10.808c-1.358,2.1,2.1,8.021,4.115,9.379a1.346,1.346,0,0,0,.769.24,1.5,1.5,0,0,0,.509-.09l-.369-8.98a20.371,20.371,0,0,0-4.166-.679C2453.563,1363.7,2453.364,1363.8,2453.333,1363.828Z" transform="translate(-2451.817 -1362.5)" fill="#303e5c"/>
          </g>
          <g id="Group_119" data-name="Group 119" transform="translate(0.292 78.979)">
            <path id="Path_131" data-name="Path 131" d="M504,1673.93a.619.619,0,0,1-.41-.159.6.6,0,0,1-.19-.44v-6.822a.6.6,0,0,1,.489-.589,52.667,52.667,0,0,1,8.071-.919c1.948,0,3.007.3,3.416.989,1.208,2-1.708,4.8-3.566,6.3-1.338,1.078-6.7,1.558-7.771,1.648C504.029,1673.93,504.019,1673.93,504,1673.93Zm.6-6.922v5.673c3.945-.359,6.053-1,6.463-1.328,2.517-2.038,3.806-3.9,3.3-4.745,0,0-.28-.41-2.4-.41A50.462,50.462,0,0,0,504.6,1667.008Z" transform="translate(-503.4 -1665)" fill="#303e5c"/>
          </g>
          <g id="Group_122" data-name="Group 122" transform="translate(59.567 40.599)">
            <g id="Group_120" data-name="Group 120">
              <path id="Path_132" data-name="Path 132" d="M1102.8,1297.857l16.461-11.157-.849,10.878Z" transform="translate(-1102.203 -1286.107)" fill="#504b45"/>
              <path id="Path_133" data-name="Path 133" d="M1097.423,1293.109a.6.6,0,0,1-.569-.42.607.607,0,0,1,.24-.679l16.461-11.147a.592.592,0,0,1,.639-.02.627.627,0,0,1,.3.569l-.849,10.877a.589.589,0,0,1-.589.549l-15.612.27Zm15.762-10.558-13.764,9.319,13.055-.23Z" transform="translate(-1096.826 -1280.759)" fill="#303e5c"/>
            </g>
            <g id="Group_121" data-name="Group 121" transform="translate(12.024 3.42)">
              <path id="Path_134" data-name="Path 134" d="M1223.2,1327.966s5.564-.449,6.7-1.358,4.015-3.456,3.087-4.974-9.789.19-9.789.19Z" transform="translate(-1222.6 -1320.404)" fill="#ffb825"/>
              <path id="Path_135" data-name="Path 135" d="M1217.2,1323.21v-7.292l.49-.09a48.114,48.114,0,0,1,7.282-.829c1.778,0,2.747.28,3.126.919.539.889.27,2.038-.819,3.4a16.459,16.459,0,0,1-2.407,2.357c-1.219.989-6.063,1.418-7.032,1.5Zm1.2-6.3v4.994c2.2-.21,5.1-.669,5.723-1.178,2.208-1.788,3.4-3.476,2.957-4.2,0,0-.269-.34-2.107-.34A44.31,44.31,0,0,0,1218.4,1316.908Z" transform="translate(-1217.2 -1315)" fill="#303e5c"/>
            </g>
          </g>
          <g id="Group_123" data-name="Group 123" transform="translate(54.569 28.918)">
            <path id="Path_136" data-name="Path 136" d="M1052.8,1189.747l4.1.1a144.784,144.784,0,0,1,16.621-11.237,112.635,112.635,0,0,1,15.722-7.332l-.949-1.478s-23.1,11.157-15.782,7.411C1079.809,1173.476,1052.8,1189.747,1052.8,1189.747Z" transform="translate(-1052.2 -1169.202)" fill="#d9eced"/>
            <path id="Path_137" data-name="Path 137" d="M1051.487,1185.055h-.02l-4.1-.1a.587.587,0,0,1-.559-.449.6.6,0,0,1,.27-.669c.15-.09,12.316-7.422,18-11.047-.01-.02-.01-.04-.02-.06-.11-.469.25-.659.639-.869q.36-.2,1.109-.569c1.159-.6,1.328-.629,1.508-.629a.275.275,0,0,1,.09.01c4.885-2.307,14.1-6.762,14.194-6.8a.606.606,0,0,1,.769.22l.949,1.478a.6.6,0,0,1,.06.519.615.615,0,0,1-.37.37,112.821,112.821,0,0,0-15.622,7.282,146.483,146.483,0,0,0-16.541,11.187A.546.546,0,0,1,1051.487,1185.055Zm-2.028-1.248,1.828.05a147.131,147.131,0,0,1,16.521-11.157,116.76,116.76,0,0,1,15.1-7.112l-.26-.4c-2.028.979-10.018,4.834-14.164,6.782C1066.61,1173.408,1054.154,1180.97,1049.459,1183.807Z" transform="translate(-1046.792 -1163.811)" fill="#303e5c"/>
          </g>
          <g id="Group_124" data-name="Group 124" transform="translate(180.638 29.758)">
            <path id="Path_138" data-name="Path 138" d="M2318.077,1178.2l-3.077,1.6,14.693,14.813h4.715Z" transform="translate(-2314.394 -1177.603)" fill="#d9eced"/>
            <path id="Path_139" data-name="Path 139" d="M2328.945,1189.827h-4.714a.6.6,0,0,1-.43-.18l-14.693-14.813a.626.626,0,0,1-.169-.519.606.606,0,0,1,.319-.44l3.076-1.588a.592.592,0,0,1,.7.11l16.331,16.411a.6.6,0,0,1,.13.649A.584.584,0,0,1,2328.945,1189.827Zm-4.464-1.2h3.027l-15-15.073-1.968,1.019Z" transform="translate(-2308.931 -1172.22)" fill="#303e5c"/>
          </g>
          <g id="Group_131" data-name="Group 131" transform="translate(20.05 66.953)">
            <g id="Group_125" data-name="Group 125">
              <path id="Path_140" data-name="Path 140" d="M745.167,1574.373a19.208,19.208,0,1,0-37.317,0Z" transform="translate(-706.691 -1550.001)" fill="#504b45"/>
              <path id="Path_141" data-name="Path 141" d="M740.155,1569.571H701.879l-.11-.459a19.627,19.627,0,0,1-.569-4.7,19.807,19.807,0,1,1,39.615,0,19.569,19.569,0,0,1-.569,4.7Zm-37.327-1.2h36.378a18.913,18.913,0,0,0,.43-3.966,18.609,18.609,0,0,0-37.217,0A18.251,18.251,0,0,0,702.828,1568.373Z" transform="translate(-701.2 -1544.6)" fill="#303e5c"/>
            </g>
            <g id="Group_130" data-name="Group 130" transform="translate(2.887 2.877)">
              <g id="Group_126" data-name="Group 126">
                <circle id="Ellipse_3" data-name="Ellipse 3" cx="16.331" cy="16.331" r="16.331" transform="translate(0.599 0.599)" fill="#504b45"/>
                <path id="Path_142" data-name="Path 142" d="M747.031,1607.261a16.931,16.931,0,1,1,16.931-16.93A16.945,16.945,0,0,1,747.031,1607.261Zm0-32.662a15.732,15.732,0,1,0,15.732,15.732A15.749,15.749,0,0,0,747.031,1574.6Z" transform="translate(-730.1 -1573.4)" fill="#303e5c"/>
              </g>
              <g id="Group_129" data-name="Group 129" transform="translate(3.266 3.266)">
                <g id="Group_127" data-name="Group 127">
                  <path id="Path_143" data-name="Path 143" d="M791.082,1615.9a13.066,13.066,0,1,0,0,18.479A13.063,13.063,0,0,0,791.082,1615.9Zm-13.574,7.931-3.846-3.216c-.879-1.159-.3-1.9.649-2.847s1.928-1.768,3.1-.9l3.216,3.846Zm-2.937,8.83c-.949-.949-1.768-1.928-.9-3.1l3.846-3.216,3.117,3.117-3.216,3.845C776.249,1634.182,775.51,1633.6,774.571,1632.664Zm11.7-8.83-3.116-3.116,3.216-3.846c1.159-.879,2.147-.05,3.1.9s1.518,1.678.649,2.847Zm.1,9.479-3.216-3.845,3.116-3.117,3.846,3.216c.879,1.159.05,2.148-.9,3.1S787.526,1634.182,786.367,1633.313Z" transform="translate(-768.178 -1611.478)" fill="#8d8c8a"/>
                  <path id="Path_144" data-name="Path 144" d="M776.464,1633.429a13.675,13.675,0,1,1,9.659-4.005A13.546,13.546,0,0,1,776.464,1633.429Zm0-26.13a12.465,12.465,0,1,0,8.81,3.646A12.393,12.393,0,0,0,776.464,1607.3Zm-5.514,21.665a3.245,3.245,0,0,1-2.187-1.259c-.769-.77-2.207-2.208-.949-3.876l.04-.06,4.315-3.616,3.9,3.9-3.616,4.315-.06.04A2.321,2.321,0,0,1,770.951,1628.964Zm-2.217-4.365c-.43.619-.22,1.158.879,2.258.569.569.979.9,1.338.9a1.239,1.239,0,0,0,.669-.27l2.817-3.366-2.337-2.338Zm13.335,4.365a2.365,2.365,0,0,1-1.438-.55l-.06-.04-3.616-4.315,3.9-3.9,4.315,3.616.04.06c1.259,1.668-.18,3.107-.949,3.876A3.309,3.309,0,0,1,782.068,1628.964Zm-.669-1.468a1.211,1.211,0,0,0,.669.27c.37,0,.769-.33,1.338-.909,1.1-1.1,1.309-1.638.879-2.258l-3.366-2.817-2.337,2.338Zm-.549-8.23-3.9-3.9,3.616-4.315.06-.04a2.205,2.205,0,0,1,1.358-.489,3.789,3.789,0,0,1,2.517,1.448c.779.779,1.958,1.958.7,3.626l-.04.06Zm-2.267-3.966,2.337,2.337,3.366-2.817c.479-.659.36-1.019-.629-2.007-.529-.529-1.139-1.089-1.668-1.089a1.06,1.06,0,0,0-.589.21Zm-6.413,3.966-4.315-3.616-.04-.06c-1.258-1.668-.08-2.847.709-3.626a3.829,3.829,0,0,1,2.517-1.448,2.268,2.268,0,0,1,1.358.49l.06.04,3.616,4.315Zm-3.436-4.445,3.366,2.817,2.337-2.337-2.817-3.366a1.036,1.036,0,0,0-.589-.21c-.529,0-1.139.559-1.668,1.089C768.374,1613.811,768.254,1614.161,768.733,1614.82Z" transform="translate(-762.8 -1606.1)" fill="#303e5c"/>
                </g>
                <g id="Group_128" data-name="Group 128" transform="translate(9.15 9.139)">
                  <circle id="Ellipse_4" data-name="Ellipse 4" cx="3.916" cy="3.916" r="3.916" transform="translate(0.599 0.609)" fill="#8d8c8a"/>
                  <path id="Path_145" data-name="Path 145" d="M858.915,1706.64a4.515,4.515,0,1,1,3.2-1.319A4.511,4.511,0,0,1,858.915,1706.64Zm0-7.841a3.316,3.316,0,0,0-2.347,5.664,3.285,3.285,0,0,0,2.347.969,3.316,3.316,0,1,0,0-6.633Z" transform="translate(-854.4 -1697.6)" fill="#303e5c"/>
                </g>
              </g>
            </g>
          </g>
          <g id="Group_138" data-name="Group 138" transform="translate(156.789 66.953)">
            <g id="Group_132" data-name="Group 132">
              <path id="Path_146" data-name="Path 146" d="M2114.717,1571.446c.36-1.468.08-.16.08-1.738a19.208,19.208,0,0,0-38.417,0,8.938,8.938,0,0,0,.25,3.077Z" transform="translate(-2075.748 -1549.911)" fill="#504b45"/>
              <path id="Path_147" data-name="Path 147" d="M2070.567,1568.1l-.12-.469a7.346,7.346,0,0,1-.28-2.417c0-.23.01-.48.01-.809a19.807,19.807,0,1,1,39.615,0,3.75,3.75,0,0,0,.03.639c.12.24.08.4-.04.879-.02.1-.05.21-.09.36l-.11.439Zm19.427-22.314a18.633,18.633,0,0,0-18.608,18.609c0,.34,0,.609-.01.829a5.4,5.4,0,0,0,.14,1.638l37.147-1.308a1.366,1.366,0,0,1,.04-.15,3.441,3.441,0,0,1-.09-1A18.637,18.637,0,0,0,2089.995,1545.789Z" transform="translate(-2070.164 -1544.6)" fill="#303e5c"/>
            </g>
            <g id="Group_137" data-name="Group 137" transform="translate(2.9 2.877)">
              <g id="Group_133" data-name="Group 133">
                <circle id="Ellipse_5" data-name="Ellipse 5" cx="16.331" cy="16.331" r="16.331" transform="translate(0.599 0.599)" fill="#504b45"/>
                <path id="Path_148" data-name="Path 148" d="M2116.131,1607.261a16.931,16.931,0,1,1,16.93-16.93A16.945,16.945,0,0,1,2116.131,1607.261Zm0-32.662a15.732,15.732,0,1,0,15.732,15.732A15.749,15.749,0,0,0,2116.131,1574.6Z" transform="translate(-2099.2 -1573.4)" fill="#303e5c"/>
              </g>
              <g id="Group_136" data-name="Group 136" transform="translate(3.266 3.266)">
                <g id="Group_134" data-name="Group 134">
                  <path id="Path_149" data-name="Path 149" d="M2160.182,1615.9a13.066,13.066,0,1,0,0,18.479A13.063,13.063,0,0,0,2160.182,1615.9Zm-13.564,7.931-3.846-3.216c-.879-1.159-.3-1.9.649-2.847s1.927-1.768,3.1-.9l3.216,3.846Zm-2.947,8.83c-.948-.949-1.768-1.928-.9-3.1l3.846-3.216,3.116,3.117-3.216,3.845C2145.349,1634.182,2144.62,1633.6,2143.671,1632.664Zm11.7-8.83-3.116-3.116,3.217-3.846c1.158-.879,2.147-.05,3.1.9s1.518,1.678.65,2.847Zm.1,9.479-3.217-3.845,3.116-3.117,3.846,3.216c.879,1.159.05,2.148-.9,3.1S2156.626,1634.182,2155.468,1633.313Z" transform="translate(-2137.278 -1611.478)" fill="#8d8c8a"/>
                  <path id="Path_150" data-name="Path 150" d="M2145.565,1633.429a13.675,13.675,0,1,1,9.659-4.005A13.546,13.546,0,0,1,2145.565,1633.429Zm0-26.13a12.448,12.448,0,1,0,8.809,3.646A12.392,12.392,0,0,0,2145.565,1607.3Zm-5.5,21.665a3.243,3.243,0,0,1-2.187-1.259c-.769-.77-2.208-2.208-.949-3.876l.04-.06,4.315-3.616,3.9,3.9-3.616,4.315-.06.04A2.365,2.365,0,0,1,2140.061,1628.964Zm-2.228-4.365c-.429.619-.219,1.158.879,2.258.57.569.979.9,1.339.9a1.24,1.24,0,0,0,.67-.27l2.817-3.366-2.337-2.338Zm13.335,4.365a2.367,2.367,0,0,1-1.438-.55l-.06-.04-3.616-4.315,3.9-3.9,4.315,3.616.04.06c1.259,1.668-.18,3.107-.949,3.876A3.31,3.31,0,0,1,2151.168,1628.964Zm-.669-1.468a1.211,1.211,0,0,0,.669.27c.369,0,.769-.33,1.338-.909,1.1-1.1,1.308-1.638.879-2.258l-3.366-2.817-2.337,2.338Zm-.549-8.23-3.9-3.9,3.616-4.315.06-.04a2.207,2.207,0,0,1,1.359-.489,3.789,3.789,0,0,1,2.517,1.448c.779.779,1.958,1.958.7,3.626l-.04.06Zm-2.268-3.966,2.337,2.337,3.366-2.817c.479-.659.36-1.019-.629-2.007-.529-.529-1.139-1.089-1.668-1.089a1.06,1.06,0,0,0-.59.21Zm-6.413,3.966-4.315-3.616-.04-.06c-1.259-1.668-.08-2.847.709-3.626a3.83,3.83,0,0,1,2.517-1.448,2.291,2.291,0,0,1,1.359.49l.06.04,3.616,4.315Zm-3.436-4.445,3.366,2.817,2.337-2.337-2.817-3.366a1.037,1.037,0,0,0-.589-.21c-.53,0-1.139.559-1.668,1.089C2137.474,1613.811,2137.354,1614.161,2137.833,1614.82Z" transform="translate(-2131.9 -1606.1)" fill="#303e5c"/>
                </g>
                <g id="Group_135" data-name="Group 135" transform="translate(9.15 9.149)">
                  <circle id="Ellipse_6" data-name="Ellipse 6" cx="3.916" cy="3.916" r="3.916" transform="translate(0.599 0.599)" fill="#8d8c8a"/>
                  <path id="Path_151" data-name="Path 151" d="M2228.015,1706.73a4.5,4.5,0,1,1,3.206-1.309A4.568,4.568,0,0,1,2228.015,1706.73Zm0-7.841a3.328,3.328,0,0,0-2.347.969,3.287,3.287,0,0,0-.969,2.347,3.327,3.327,0,0,0,.969,2.347,3.285,3.285,0,0,0,2.347.969,3.316,3.316,0,1,0,0-6.633Z" transform="translate(-2223.5 -1697.7)" fill="#303e5c"/>
                </g>
              </g>
            </g>
          </g>
          <g id="Group_141" data-name="Group 141" transform="translate(106.237 50.978)">
            <g id="Group_139" data-name="Group 139" transform="translate(0 4.605)">
              <path id="Path_152" data-name="Path 152" d="M1578.768,1437.777a1.082,1.082,0,0,1-1,1.149l-6.542.45a1.082,1.082,0,0,1-1.149-1h0a1.082,1.082,0,0,1,1-1.149l6.543-.449a1.081,1.081,0,0,1,1.148,1Z" transform="translate(-1569.474 -1436.175)" fill="#fcb83f"/>
              <path id="Path_153" data-name="Path 153" d="M1565.732,1434.563a1.678,1.678,0,0,1-1.668-1.558,1.675,1.675,0,0,1,1.558-1.788l6.542-.45a1.677,1.677,0,0,1,.23,3.346l-6.543.45Zm6.542-2.6h-.03l-6.542.449a.517.517,0,0,0-.33.16.543.543,0,0,0-.12.339.473.473,0,0,0,.51.44l6.542-.45a.478.478,0,0,0,.439-.509A.469.469,0,0,0,1572.275,1431.966Z" transform="translate(-1564.06 -1430.764)" fill="#303e5c"/>
            </g>
            <g id="Group_140" data-name="Group 140" transform="translate(48.764)">
              <path id="Path_154" data-name="Path 154" d="M2066.968,1391.677a1.081,1.081,0,0,1-1,1.149l-6.542.45a1.082,1.082,0,0,1-1.149-1h0a1.082,1.082,0,0,1,1-1.149l6.543-.449a1.081,1.081,0,0,1,1.148,1Z" transform="translate(-2057.674 -1390.075)" fill="#fcb83f"/>
              <path id="Path_155" data-name="Path 155" d="M2053.932,1388.464a1.678,1.678,0,0,1-1.668-1.558,1.676,1.676,0,0,1,1.558-1.788l6.542-.449a1.677,1.677,0,0,1,.23,3.346l-6.543.449A.475.475,0,0,0,2053.932,1388.464Zm6.552-2.6h-.03l-6.542.449a.517.517,0,0,0-.33.16.543.543,0,0,0-.12.34.472.472,0,0,0,.509.44l6.543-.449a.47.47,0,0,0-.031-.939Z" transform="translate(-2052.26 -1384.664)" fill="#303e5c"/>
            </g>
          </g>
          <g id="Group_142" data-name="Group 142" transform="translate(20.049)">
            <path id="Path_156" data-name="Path 156" d="M742.045,929.193c-1.409-5-12.506-43-24.732-47.126a33.573,33.573,0,0,0-6.263-1.448c-10.368-1.358,3.6,2.357,9.459,10.108C727.152,899.517,742.045,929.193,742.045,929.193Z" transform="translate(-706.715 -879.74)" fill="#ffb825"/>
            <path id="Path_157" data-name="Path 157" d="M735.99,924.023c-.15-.3-14.943-29.726-21.485-38.376-2.787-3.686-7.561-6.5-10.408-8.18-2.287-1.349-3.067-1.808-2.867-2.537.17-.629.959-.629,1.339-.629a26.711,26.711,0,0,1,3.036.28,33.48,33.48,0,0,1,6.383,1.478c5.314,1.788,10.957,9.719,16.791,23.573a220.059,220.059,0,0,1,8.33,23.963ZM703.2,875.529c.44.28.989.6,1.508.909,2.927,1.728,7.831,4.625,10.758,8.49,2.777,3.666,7.262,11.277,13.315,22.6,1.978,3.706,3.816,7.222,5.244,10-1.488-4.665-3.676-11.047-6.363-17.44-5.6-13.325-11.157-21.246-16.062-22.894a31.841,31.841,0,0,0-6.153-1.418C704.486,875.649,703.747,875.568,703.2,875.529Z" transform="translate(-701.199 -874.3)" fill="#303e5c"/>
          </g>
        </g>
      </g>
    </g>
  </g>
</svg>
